<svg width="512" height="512" viewBox="0 0 512 512" fill="none" xmlns="http://www.w3.org/2000/svg">
<path d="M394.667 256C318.122 255.906 256.094 193.878 256 117.333C256 113.728 256.277 110.208 256.533 106.666H96C90.109 106.671 85.338 111.451 85.343 117.343C85.344 117.998 85.405 118.652 85.525 119.296L117.525 289.963C118.469 295.006 122.869 298.662 128 298.667H420.992C447.892 298.67 470.584 278.64 473.92 251.947L476.821 228.779C453.072 246.443 424.265 255.988 394.667 256Z" fill="#FFD232"/>
<path d="M394.667 512C424.122 512 448 488.122 448 458.667C448 429.212 424.122 405.334 394.667 405.334C365.212 405.334 341.334 429.212 341.334 458.667C341.334 488.122 365.212 512 394.667 512Z" fill="#455A64"/>
<path d="M181.333 512C210.788 512 234.666 488.122 234.666 458.667C234.666 429.212 210.788 405.334 181.333 405.334C151.878 405.334 128 429.212 128 458.667C128 488.122 151.878 512 181.333 512Z" fill="#455A64"/>
<path d="M437.333 384H191.125C155.564 383.926 124.962 358.844 117.909 323.989L65.92 64H10.667C4.776 64 0 59.224 0 53.333C0 47.442 4.776 42.666 10.667 42.666H74.667C79.737 42.665 84.106 46.232 85.12 51.199L138.837 319.786C143.872 344.682 165.725 362.603 191.125 362.666H437.333C443.224 362.666 448 367.442 448 373.333C448 379.224 443.224 384 437.333 384Z" fill="#455A64"/>
<path d="M393.667 234.666C458.468 234.666 511 182.134 511 117.333C511 52.5318 458.468 0 393.667 0C328.866 0 276.334 52.5318 276.334 117.333C276.334 182.134 328.866 234.666 393.667 234.666Z" fill="#3572FF"/>
<path d="M436.333 128H351C345.109 128 340.333 123.224 340.333 117.333C340.333 111.442 345.109 106.666 351 106.666H436.333C442.224 106.666 447 111.442 447 117.333C447 123.224 442.224 128 436.333 128Z" fill="#FAFAFA"/>
<path d="M393.667 170.667C387.776 170.667 383 165.891 383 160V74.667C383 68.776 387.776 64 393.667 64C399.558 64 404.334 68.776 404.334 74.667V160C404.333 165.891 399.558 170.667 393.667 170.667Z" fill="#FAFAFA"/>
</svg>
